<?xml version="1.0" encoding="UTF-8"?>
<svg version="1.1" xmlns="http://www.w3.org/2000/svg" width="758" height="257">
<path d="M0 0 C250.14 0 500.28 0 758 0 C758 84.81 758 169.62 758 257 C507.86 257 257.72 257 0 257 C0 172.19 0 87.38 0 0 Z " fill="#FDFDFD" transform="translate(0,0)"/>
<path d="M0 0 C250.14 0 500.28 0 758 0 C758 84.81 758 169.62 758 257 C507.86 257 257.72 257 0 257 C0 172.19 0 87.38 0 0 Z M5 5 C5 86.18 5 167.36 5 251 C251.84 251 498.68 251 753 251 C753 169.82 753 88.64 753 5 C506.16 5 259.32 5 5 5 Z " fill="#313A7D" transform="translate(0,0)"/>
<path d="M0 0 C3.27634314 2.67456583 4.63024101 4.12149228 5.4375 8.22265625 C5.65278608 12.25254251 5.27730285 14.51472002 3.25 18.0625 C1 20 1 20 -3 20 C-3 34.85 -3 49.7 -3 65 C-0.69 65.33 1.62 65.66 4 66 C4.103125 65.175 4.20625 64.35 4.3125 63.5 C4.86841792 60.66987241 5.53602039 58.55801257 6.625 55.9375 C7.94629469 52.55369654 8.27039762 50.51802416 7 47 C6.649375 46.360625 6.29875 45.72125 5.9375 45.0625 C4.61313579 42.14889874 4.6189657 40.17528585 5 37 C6.63435405 33.96477105 8.055553 31.71647703 10.8125 29.625 C15.14358292 28.38754774 18.71965322 28.40250483 22.8125 30.3125 C25.44343935 32.34208179 26.84872291 33.96216878 27.3359375 37.3046875 C27.39843895 41.41728316 27.36300804 44.27398393 25.5 48 C23 50 23 50 19.0625 50.5859375 C16.43792482 51.19610944 15.33954751 51.50981587 13.78710938 53.75097656 C12.86341784 56.01924348 12.15147932 58.26434552 11.5 60.625 C11.12488281 61.82769531 11.12488281 61.82769531 10.7421875 63.0546875 C10.13156932 65.02745394 9.56170566 67.01275347 9 69 C11.66179051 71.20416963 11.66179051 71.20416963 13.88696289 70.90722656 C16.83593752 69.64109257 18.56348359 67.7721346 20.80859375 65.484375 C21.72060547 64.56269531 22.63261719 63.64101562 23.57226562 62.69140625 C24.52753885 61.71112758 25.48261541 60.73065724 26.4375 59.75 C27.38797203 58.78446682 28.33913735 57.8196156 29.29101562 56.85546875 C31.05349674 55.06686759 32.81287639 53.27520108 34.56811523 51.47949219 C36.26441577 49.74998428 37.9862304 48.04529294 39.72680664 46.36035156 C42.03549677 43.96314222 43.01153463 42.1451171 44 39 C46 41 46 41 46 44 C47.64574566 44.02688151 49.29161413 44.04634123 50.9375 44.0625 C52.31228516 44.07990234 52.31228516 44.07990234 53.71484375 44.09765625 C55.96593327 44.25949049 55.96593327 44.25949049 57 43 C57.30867281 39.52743085 57.38701339 37.6127712 55.5 34.625 C54.7575 33.820625 54.7575 33.820625 54 33 C54.66 31.68 55.32 30.36 56 29 C59.38231081 30.39957689 61.27928642 31.73064421 63 35 C63.83931263 41.5046729 63.83931263 41.5046729 61.98046875 44.81640625 C59.83541289 47.50582673 58.28524531 48.90491823 55 50 C54.01036255 49.82645996 54.01036255 49.82645996 53.00073242 49.64941406 C49.42648225 49.06137416 46.53566946 49.01144526 43.39459229 51.03344727 C39.67348657 54.02454653 36.36459157 57.42983778 33.08227539 60.88867188 C31.3050598 62.75782509 29.49033459 64.58315623 27.66601562 66.40625 C26.52104041 67.57578305 25.3783747 68.74758257 24.23828125 69.921875 C23.69577225 70.46994812 23.15326324 71.01802124 22.59431458 71.58270264 C20.92571791 73.30044141 20.92571791 73.30044141 19 76 C19.01366279 78.32810735 19.01366279 78.32810735 20 80 C28.18156981 77.85092406 36.73213113 75.40805615 44 71 C45.58805069 68.22492151 45.6318551 66.26071196 46 63 C48.1875 60.5 48.1875 60.5 51 59 C54.8125 58.75 54.8125 58.75 58 59 C58.33 59.99 58.66 60.98 59 62 C58 64 58 64 55 65.0625 C54.01 65.371875 53.02 65.68125 52 66 C50.72996677 67.05310277 50.72996677 67.05310277 50.8125 69.4375 C50.73160017 72.16734675 50.73160017 72.16734675 53 74 C52.625 76.625 52.625 76.625 52 79 C50.88367188 78.75378906 49.76734375 78.50757812 48.6171875 78.25390625 C43.10422027 77.56508906 39.03208381 79.63254215 34.125 81.9375 C32.44128916 82.69923927 30.75644696 83.45848438 29.0703125 84.21484375 C28.33570801 84.55636475 27.60110352 84.89788574 26.84423828 85.24975586 C25 86 25 86 23 86 C23 87.65 23 89.3 23 91 C28.28 91 33.56 91 39 91 C38.34 92.98 37.68 94.96 37 97 C32.38 97 27.76 97 23 97 C23 98.65 23 100.3 23 102 C25.64 103.32 28.28 104.64 31 106 C30.34 107.65 29.68 109.3 29 111 C25.33118845 110.29445932 22.29549466 108.72264494 19 107 C18.05392193 109.74961511 18.05392193 109.74961511 18 113 C20.31273442 115.8971941 20.31273442 115.8971941 23 118 C22.01 119.98 22.01 119.98 21 122 C19.68 122 18.36 122 17 122 C14.75 119.5 14.75 119.5 13 117 C11.35 117.33 9.7 117.66 8 118 C8.495 119.093125 8.99 120.18625 9.5 121.3125 C11 125 11 125 11 128 C9.35 128.33 7.7 128.66 6 129 C5.01 126.69 4.02 124.38 3 122 C1.35 122 -0.3 122 -2 122 C-2.33 124.97 -2.66 127.94 -3 131 C-4.65 131 -6.3 131 -8 131 C-8 128.03 -8 125.06 -8 122 C-9.98 122 -11.96 122 -14 122 C-15.32 124.64 -16.64 127.28 -18 130 C-19.98 130 -21.96 130 -24 130 C-23.56474778 127.38848668 -23.14968202 125.27441704 -21.875 122.9375 C-20.79136997 120.5380335 -21.1322436 119.42971792 -22 117 C-26.41739404 117.44932806 -29.02694641 120.43547406 -32.078125 123.36328125 C-32.64956238 123.91050339 -33.22099976 124.45772552 -33.80975342 125.02153015 C-35.01432916 126.18465727 -36.21436915 127.35249754 -37.41015625 128.5246582 C-38.63063615 129.71064205 -39.86438711 130.88312895 -41.11132812 132.04125977 C-48.63361966 138.64846311 -48.63361966 138.64846311 -52.73339844 147.42285156 C-52.75640115 150.61248957 -52.75640115 150.61248957 -52.27734375 153.55102539 C-52 156 -52 156 -53.75 159.125 C-57.88830014 162.57358345 -60.53843406 163.45513049 -66 163 C-69.46854202 162.08185652 -70.15062181 160.78243516 -72.25 157.75 C-74.03032405 154.33771223 -74.66055382 151.88075368 -74 148 C-71.86734708 144.03935887 -70.21983791 141.6110156 -66 140 C-63.88809204 140.01383972 -63.88809204 140.01383972 -61.68994141 140.24682617 C-58.03238588 140.31985767 -56.20596305 139.86773128 -53.39208984 137.5090332 C-52.2246405 136.38032346 -51.08165574 135.22590435 -49.9609375 134.05078125 C-49.04424789 133.13633492 -49.04424789 133.13633492 -48.10903931 132.20341492 C-46.82954877 130.91693414 -45.56104997 129.61943698 -44.30322266 128.31176758 C-42.37177101 126.30915204 -40.40299517 124.34991685 -38.42578125 122.39257812 C-37.18509986 121.13517621 -35.9467328 119.87548562 -34.7109375 118.61328125 C-34.12154388 118.02662186 -33.53215027 117.43996246 -32.92489624 116.83552551 C-31.09815958 114.98050471 -31.09815958 114.98050471 -29 112 C-28.97682986 109.16085591 -28.97682986 109.16085591 -30 107 C-30.74685059 107.33322266 -31.49370117 107.66644531 -32.26318359 108.00976562 C-35.63210378 109.51032811 -39.00350566 111.00523072 -42.375 112.5 C-43.550625 113.02464844 -44.72625 113.54929687 -45.9375 114.08984375 C-47.61972656 114.83427734 -47.61972656 114.83427734 -49.3359375 115.59375 C-50.37282715 116.05458984 -51.4097168 116.51542969 -52.47802734 116.99023438 C-55 118 -55 118 -57 118 C-56.8453125 119.299375 -56.8453125 119.299375 -56.6875 120.625 C-57.121089 125.30776117 -58.70193354 126.70193354 -62 130 C-65.65288193 131.21762731 -68.15754136 131.39075851 -72 131 C-74.97551795 129.22396702 -77.42755188 127.14489623 -79 124 C-79.68128376 117.18716238 -79.68128376 117.18716238 -77.953125 114.17578125 C-76.17156722 112.01171253 -74.52390368 110.26195184 -72 109 C-64.53333333 108.64444444 -64.53333333 108.64444444 -61 111 C-54.98751263 110.78459936 -49.54023189 107.83326316 -44.125 105.4375 C-43.15046875 105.01275391 -42.1759375 104.58800781 -41.171875 104.15039062 C-38.77855235 103.10624496 -36.38811986 102.05597786 -34 101 C-34 100.01 -34 99.02 -34 98 C-40.35354365 97.87337361 -46.70676289 97.78572299 -53.0612793 97.7253418 C-55.22351236 97.70017501 -57.38566018 97.66603842 -59.54760742 97.62280273 C-62.65304572 97.56224704 -65.75736097 97.53381213 -68.86328125 97.51171875 C-70.31653557 97.47300911 -70.31653557 97.47300911 -71.79914856 97.43351746 C-74.29994076 97.43246891 -76.55747351 97.46233413 -79 98 C-81.11285716 100.30909988 -81.11285716 100.30909988 -82 103 C-85.98324194 105.67993169 -90.35963697 105.83543078 -95 105 C-97.75569447 102.81840855 -99.43588747 101.12822506 -101 98 C-101.68128376 91.18716238 -101.68128376 91.18716238 -99.953125 88.17578125 C-98.17156722 86.01171253 -96.52390368 84.26195184 -94 83 C-89.74574422 82.59093694 -87.4548953 82.76412836 -83.625 84.75 C-81 87 -81 87 -80 91 C-64.82 91 -49.64 91 -34 91 C-34.33 89.68 -34.66 88.36 -35 87 C-37.19192855 85.72453996 -39.19047623 84.75128138 -41.51953125 83.80078125 C-42.17451096 83.52026413 -42.82949066 83.23974701 -43.50431824 82.95072937 C-45.60134872 82.05712038 -47.70664304 81.18507408 -49.8125 80.3125 C-51.21996009 79.71420404 -52.62686882 79.11460928 -54.03320312 78.51367188 C-61.32389484 75.09845909 -61.32389484 75.09845909 -69 73 C-69.7425 73.474375 -70.485 73.94875 -71.25 74.4375 C-74.88290566 76.50165094 -77.90765943 76.91767637 -82 76 C-84.9375 73.5625 -84.9375 73.5625 -87 71 C-87.33 70.67 -87.66 70.34 -88 70 C-88.55419529 65.09400888 -88.74119722 61.21062213 -86.125 56.9375 C-82.80557253 53.91096319 -80.52205924 53.71616581 -76.03125 53.78125 C-72.14385045 54.19989303 -69.86978813 56.13021187 -67.1875 58.8125 C-65.64497146 61.65399994 -65.7829826 63.81707811 -66 67 C-65.13648926 67.27561768 -64.27297852 67.55123535 -63.38330078 67.83520508 C-60.12346209 68.95749476 -57.01905022 70.24231343 -53.8671875 71.63671875 C-52.16369141 72.37825195 -52.16369141 72.37825195 -50.42578125 73.13476562 C-48.04772326 74.17467547 -45.672731 75.22162279 -43.30078125 76.27539062 C-42.16769531 76.76587891 -41.03460937 77.25636719 -39.8671875 77.76171875 C-38.83706543 78.21506592 -37.80694336 78.66841309 -36.74560547 79.13549805 C-33.91579286 80.02651409 -32.7175769 80.06468895 -30 79 C-30.58384967 75.72368241 -31.54322231 74.07904965 -33.87988281 71.73193359 C-34.78652679 70.81110489 -34.78652679 70.81110489 -35.71148682 69.87167358 C-36.36872742 69.22050568 -37.02596802 68.56933777 -37.703125 67.8984375 C-38.37792908 67.22076324 -39.05273315 66.54308899 -39.74798584 65.84487915 C-41.1767721 64.41405218 -42.60935082 62.98700372 -44.04541016 61.56347656 C-46.2382351 59.38667891 -48.41464996 57.19439971 -50.58984375 55 C-51.98081019 53.61101648 -53.37270721 52.22296413 -54.765625 50.8359375 C-55.41476868 50.18072113 -56.06391235 49.52550476 -56.73272705 48.85043335 C-60.52490786 45.11637002 -63.68602379 42.07944464 -69.28125 41.9453125 C-70.0134375 42.00460938 -70.745625 42.06390625 -71.5 42.125 C-74.92906587 42.20487841 -75.86151776 42.08250006 -78.9375 40.25 C-81.98332377 36.92728316 -82.85349415 35.13018796 -83.4375 30.625 C-82.85694294 25.8146701 -81.38607407 24.38607407 -78 21 C-74.80657621 19.40328811 -71.47454369 19.62581837 -68 20 C-64.27494902 21.65557822 -62.12916332 23.54376502 -60 27 C-59.96356201 29.28108215 -59.96356201 29.28108215 -60.26855469 31.72192383 C-60.38682186 36.00724574 -59.74155108 38.01573439 -56.94238281 41.2722168 C-55.55569707 42.69084587 -54.14074941 44.08223599 -52.703125 45.44921875 C-51.95794617 46.19210648 -51.21276733 46.9349942 -50.44500732 47.70039368 C-48.87289068 49.25746374 -47.288696 50.80242268 -45.69335938 52.33569336 C-43.2450892 54.6922268 -40.83968223 57.08682554 -38.4375 59.49023438 C-36.90338782 60.99978387 -35.36700539 62.50703041 -33.828125 64.01171875 C-33.10506165 64.72921799 -32.38199829 65.44671722 -31.63702393 66.18595886 C-30.61641876 67.15871513 -30.61641876 67.15871513 -29.57519531 68.15112305 C-28.68250946 69.01522041 -28.68250946 69.01522041 -27.77178955 69.89677429 C-26.02641645 71.24776709 -26.02641645 71.24776709 -23.77655029 70.67805481 C-22.8971579 70.34241768 -22.8971579 70.34241768 -22 70 C-23.46882021 65.02147255 -25.61908656 60.75710226 -28.125 56.25 C-32 49.26427336 -32 49.26427336 -32 47 C-33.546875 47.1546875 -33.546875 47.1546875 -35.125 47.3125 C-40.19970101 46.90324992 -41.46272683 45.53727317 -45 42 C-46.74221711 38.51556578 -46.58675154 34.80112955 -46 31 C-44.29748281 27.92530477 -42.18773492 25.59386746 -39 24 C-37.45386986 24.08651631 -35.91090613 24.24002636 -34.375 24.4375 C-33.55773437 24.53933594 -32.74046875 24.64117187 -31.8984375 24.74609375 C-31.27195312 24.82988281 -30.64546875 24.91367187 -30 25 C-29.505 27.475 -29.505 27.475 -29 30 C-29.99 30.66 -30.98 31.32 -32 32 C-32.33 31.67 -32.66 31.34 -33 31 C-35.45792029 30.66656449 -35.45792029 30.66656449 -38 31 C-40.28138945 33.75698184 -40.28138945 33.75698184 -39.8125 36.5625 C-39.16627558 39.33255117 -39.16627558 39.33255117 -36 41 C-36 41.66 -36 42.32 -36 43 C-35.05125 42.505 -34.1025 42.01 -33.125 41.5 C-30 40 -30 40 -28 40 C-28.33 41.98 -28.66 43.96 -29 46 C-28.01 46 -27.02 46 -26 46 C-22.7 52.27 -19.4 58.54 -16 65 C-13.69 65 -11.38 65 -9 65 C-9 50.48 -9 35.96 -9 21 C-10.32 20.34 -11.64 19.68 -13 19 C-15.6859194 16.83132262 -16.54483243 15.15351551 -17.0625 11.75 C-17.31809859 8.85321598 -17.24734805 7.43086434 -15.7890625 4.890625 C-10.9513157 -0.8202761 -7.32372398 -2.00771054 0 0 Z " fill="#257BA7" transform="translate(613,33)"/>
<path d="M0 0 C250.14 0 500.28 0 758 0 C758 84.81 758 169.62 758 257 C507.86 257 257.72 257 0 257 C0 172.19 0 87.38 0 0 Z M2 2 C2 85.16 2 168.32 2 254 C250.82 254 499.64 254 756 254 C756 170.84 756 87.68 756 2 C507.18 2 258.36 2 2 2 Z " fill="#EBEBF0" transform="translate(0,0)"/>
<path d="M0 0 C5.94 0 11.88 0 18 0 C18.33 8.91 18.66 17.82 19 27 C21.64 25.35 24.28 23.7 27 22 C30.07939042 21.54094272 32.46230683 21.32270146 35.5 21.4375 C36.62027588 21.46239502 36.62027588 21.46239502 37.76318359 21.48779297 C43.29817833 21.7218026 47.53089229 22.57046891 52 26 C52.60972656 26.4125 53.21945313 26.825 53.84765625 27.25 C60.2562846 32.03946323 63.79366008 39.16488318 65 47 C66.01874218 57.72184391 63.39131209 66.9507831 56.57421875 75.34765625 C52.05448007 80.09169958 46.54073056 83.00866668 40.00390625 83.30078125 C38.52350336 83.31528208 37.04295993 83.31893119 35.5625 83.3125 C34.82451172 83.32861328 34.08652344 83.34472656 33.32617188 83.36132812 C27.6537603 83.36637027 23.46321707 82.21689536 19.125 78.3125 C18.75375 77.879375 18.3825 77.44625 18 77 C17.67 78.98 17.34 80.96 17 83 C11.39 83 5.78 83 0 83 C0 55.61 0 28.22 0 0 Z " fill="#222C72" transform="translate(108,87)"/>
<path d="M0 0 C6.6 0 13.2 0 20 0 C21.07314453 2.41892578 21.07314453 2.41892578 22.16796875 4.88671875 C27.38242768 16.63363514 32.60733497 28.3757234 37.86529541 40.10324097 C38.68530512 41.93260345 39.50455383 43.76230537 40.32373047 45.59204102 C42.80369956 51.1261648 45.29401505 56.65482283 47.8203125 62.16796875 C48.24481689 63.09810791 48.66932129 64.02824707 49.10668945 64.98657227 C49.88687537 66.69369298 50.67157466 68.39876127 51.46166992 70.10131836 C54 75.66512058 54 75.66512058 54 79 C47.4 79 40.8 79 34 79 C33.01 76.73125 32.02 74.4625 31 72.125 C30.68675781 71.41230957 30.37351562 70.69961914 30.05078125 69.96533203 C28 65.22222222 28 65.22222222 28 63 C15.79 63 3.58 63 -9 63 C-9.33 64.65 -9.66 66.3 -10 68 C-11.24417401 71.70254193 -12.63299094 75.33994347 -14 79 C-20.6 79 -27.2 79 -34 79 C-32.81321449 75.43964347 -31.72477782 72.19371728 -30.21923828 68.81591797 C-29.87733459 68.04493271 -29.53543091 67.27394745 -29.1831665 66.479599 C-28.81592468 65.6587532 -28.44868286 64.83790741 -28.0703125 63.9921875 C-27.68341248 63.12094742 -27.29651245 62.24970734 -26.89788818 61.35206604 C-26.0703862 59.4889266 -25.24173973 57.62629513 -24.41204834 55.76412964 C-22.25281449 50.91714269 -20.10243262 46.06623896 -17.953125 41.21484375 C-17.52736176 40.25399368 -17.10159851 39.29314362 -16.66293335 38.30317688 C-11.64054116 26.95223651 -6.75536245 15.54405518 -1.91357422 4.11499023 C-1.31372071 2.72628609 -0.67650919 1.35301838 0 0 Z " fill="#232D70" transform="translate(47,91)"/>
<path d="M0 0 C4.50938437 1.58149025 6.80857321 5.10521238 9.625 8.75 C10.11484375 9.3584375 10.6046875 9.966875 11.109375 10.59375 C13.97056805 14.25232472 15.80880204 17.43140546 17 22 C14.69 21.67 12.38 21.34 10 21 C10 75.45 10 129.9 10 186 C4.06 186 -1.88 186 -8 186 C-8 132.21 -8 78.42 -8 23 C-10.97 23 -13.94 23 -17 23 C-16.195625 21.9275 -15.39125 20.855 -14.5625 19.75 C-14.02238281 19.02941406 -13.48226562 18.30882813 -12.92578125 17.56640625 C-11.50813284 15.67716689 -10.08858138 13.78935517 -8.66796875 11.90234375 C-8.26827881 11.37092773 -7.86858887 10.83951172 -7.45678711 10.29199219 C-6.28938725 8.73986759 -5.12126862 7.18828367 -3.953125 5.63671875 C-2.58712719 3.7926217 -1.2729909 1.90948635 0 0 Z " fill="#21C0CF" transform="translate(690,32)"/>
<path d="M0 0 C6.41351429 4.56591249 10.97337358 10.63299167 12.421875 18.4921875 C13.19268621 28.41164318 12.82056009 37.60410565 6.69140625 45.80859375 C0.40173169 52.62554642 -7.30174855 56.07535376 -16.484375 56.80078125 C-27.36018933 57.21734725 -35.93135468 56.28784699 -44.5 48.81640625 C-51.53604342 41.2404684 -53.98812202 32.55846595 -53.8515625 22.3984375 C-53.05681903 13.95144973 -48.87461615 7.04645965 -42.578125 1.4921875 C-29.43076128 -7.65279293 -13.83385048 -8.09070649 0 0 Z " fill="#232D72" transform="translate(407.578125,113.5078125)"/>
<path d="M0 0 C5.94 0 11.88 0 18 0 C18.33 9.24 18.66 18.48 19 28 C21.97 26.02 24.94 24.04 28 22 C36.14274799 20.3714504 43.51372323 19.99871414 51 24 C57.17168903 28.15402146 59.71248794 33.13746382 62 40 C62.08610514 41.42718637 62.11771828 42.85806648 62.11352539 44.2878418 C62.11344986 45.14850754 62.11337433 46.00917328 62.11329651 46.8959198 C62.10813522 47.82100845 62.10297394 48.74609711 62.09765625 49.69921875 C62.0962413 50.64940384 62.09482635 51.59958893 62.09336853 52.5785675 C62.08776875 55.61491029 62.07521632 58.65117948 62.0625 61.6875 C62.05748497 63.74544164 62.05292207 65.80338444 62.04882812 67.86132812 C62.03865008 72.90760329 62.01907456 77.9537192 62 83 C55.73 83 49.46 83 43 83 C42.98582031 80.24269531 42.97164062 77.48539062 42.95703125 74.64453125 C42.926396 71.96691738 42.88731122 69.28955051 42.84741211 66.61206055 C42.82425012 64.75472787 42.8098406 62.89726418 42.80444336 61.03979492 C42.79514038 58.365545 42.75412303 55.69335032 42.70703125 53.01953125 C42.7109639 52.19226028 42.71489655 51.36498932 42.71894836 50.51264954 C42.6102726 46.19489836 42.38121224 44.48559971 39.62573242 40.97558594 C35.82618214 38.11682621 33.19765178 38.35752986 28.59765625 38.57421875 C25.07347779 39.15186605 23.32000235 40.30580372 21 43 C18.4424637 46.79240559 18.65244608 50.85054538 18.5859375 55.265625 C18.56657135 56.05902283 18.5472052 56.85242065 18.5272522 57.66986084 C18.46761639 60.19646557 18.42113557 62.72311625 18.375 65.25 C18.33680545 66.96616537 18.29775285 68.68231187 18.2578125 70.3984375 C18.16031724 74.59885848 18.08062361 78.79908582 18 83 C12.06 83 6.12 83 0 83 C0 55.61 0 28.22 0 0 Z " fill="#262F75" transform="translate(184,87)"/>
<path d="M0 0 C5.94 0 11.88 0 18 0 C18.33 2.31 18.66 4.62 19 7 C19.47050781 6.57847656 19.94101562 6.15695313 20.42578125 5.72265625 C21.04839844 5.17480469 21.67101562 4.62695312 22.3125 4.0625 C22.92738281 3.51722656 23.54226563 2.97195312 24.17578125 2.41015625 C29.81780615 -1.95123773 40.15397431 -0.74742492 47 0 C50.36716644 1.0940933 52.52398456 2.49771383 55 5 C55.49628906 5.48082031 55.99257813 5.96164063 56.50390625 6.45703125 C62.24256227 12.65347179 62.28351694 19.25162725 62.1953125 27.2109375 C62.1924826 28.17907379 62.18965271 29.14721008 62.18673706 30.14468384 C62.17558696 33.22158428 62.1504918 36.29818828 62.125 39.375 C62.11496352 41.4674437 62.10583884 43.55989198 62.09765625 45.65234375 C62.07566453 50.76834251 62.04117025 55.88412108 62 61 C56.06 61 50.12 61 44 61 C43.97421875 58.31488281 43.9484375 55.62976563 43.921875 52.86328125 C43.88343327 50.25518427 43.83828001 47.64728357 43.79248047 45.03930664 C43.76430111 43.23048311 43.74307145 41.42153714 43.72900391 39.61254883 C43.70753186 37.00799006 43.66086189 34.40489866 43.609375 31.80078125 C43.60814636 30.99538406 43.60691772 30.18998688 43.60565186 29.36018372 C43.47540394 24.33742379 42.77765753 21.64286746 39 18 C35.04603037 16.02301519 30.29880647 16.42930708 26 17 C23.10316132 19.2015974 21.60702769 20.78594462 20 24 C19.84308093 26.76931368 19.74156866 29.51734107 19.68359375 32.2890625 C19.66281265 33.10748627 19.64203156 33.92591003 19.62062073 34.76913452 C19.55515188 37.38766966 19.49625274 40.00630639 19.4375 42.625 C19.39431224 44.39844807 19.35069786 46.17188581 19.30664062 47.9453125 C19.19866901 52.29677232 19.09957622 56.64830747 19 61 C12.73 61 6.46 61 0 61 C0 40.87 0 20.74 0 0 Z " fill="#252F74" transform="translate(431,109)"/>
<path d="M0 0 C4.36140823 3.27288256 6.66386621 5.65546484 8 11 C3.38 13.31 -1.24 15.62 -6 18 C-7.98 16.35 -9.96 14.7 -12 13 C-15.9672735 11.01636325 -20.6868254 11.45248842 -25 12 C-28.95959826 13.94479286 -31.32236714 16.96766272 -33 21 C-33.9219156 26.70301279 -32.89468715 31.20310335 -30.265625 36.2734375 C-28.14924689 39.1605953 -26.20633294 40.79695386 -22.6328125 41.3984375 C-17.36278179 41.34918488 -13.50979168 41.04410939 -9 38 C-8.34 37.01 -7.68 36.02 -7 35 C-3.42959697 35.65902299 -0.82267745 37.16229158 2.25 39.0625 C3.14203125 39.61035156 4.0340625 40.15820312 4.953125 40.72265625 C5.62859375 41.14417969 6.3040625 41.56570312 7 42 C5.9283831 47.43874384 2.39572348 49.96063145 -1.9375 53.1875 C-10.47284395 58.23903009 -20.35434071 58.07362596 -30 57 C-36.23907718 55.20682105 -40.7959216 51.94597459 -45 47 C-45.70125 46.2575 -46.4025 45.515 -47.125 44.75 C-52.61672468 36.69547046 -53.1955797 27.52543826 -52 18 C-48.88404957 8.32066462 -43.66918686 2.33767139 -34.8125 -2.3125 C-23.60789006 -7.72083515 -10.65127668 -5.8124293 0 0 Z " fill="#242E74" transform="translate(342,113)"/>
<path d="M0 0 C0.33 0 0.66 0 1 0 C1 36.3 1 72.6 1 110 C-4.94 110 -10.88 110 -17 110 C-17.22658728 98.97705173 -17.40975667 87.95566797 -17.51812172 76.93091106 C-17.57015159 71.81072154 -17.64063182 66.69221755 -17.75439453 61.57299805 C-17.86364162 56.62559965 -17.92296282 51.67981439 -17.94877243 46.73130226 C-17.96714619 44.85056998 -18.00302833 42.96991883 -18.05730057 41.08987999 C-18.50788934 24.82321638 -18.50788934 24.82321638 -13.4763546 18.91099262 C-11.42556256 16.81803358 -9.20812845 14.92420213 -7 13 C-5.31170806 10.66373341 -4.16104523 8.41254796 -2.875 5.8125 C-2.31554687 4.70519531 -1.75609375 3.59789063 -1.1796875 2.45703125 C-0.79039062 1.64621094 -0.40109375 0.83539063 0 0 Z " fill="#1D84AB" transform="translate(673,108)"/>
<path d="M0 0 C6.35196307 3.51728105 10.72196742 7.8885585 13.0546875 14.88671875 C13.73761323 22.01841455 14.03310557 28.26107116 9.609375 34.171875 C3.67974545 40.71234578 -1.32956759 43.84124485 -10.3203125 44.32421875 C-17.03364062 44.17847486 -20.9834182 41.78264659 -25.69921875 37.171875 C-31.06416209 31.26397354 -32.54536599 25.98412994 -32.37890625 18.0234375 C-31.40236024 10.95887495 -27.4344966 5.65306603 -21.9453125 1.26171875 C-15.22862597 -2.70259876 -7.20666391 -2.72400426 0 0 Z " fill="#FBFDFD" transform="translate(616.9453125,105.11328125)"/>
<path d="M0 0 C5.94 0 11.88 0 18 0 C18 20.13 18 40.26 18 61 C12.06 61 6.12 61 0 61 C0 40.87 0 20.74 0 0 Z " fill="#262F74" transform="translate(261,109)"/>
<path d="M0 0 C0.33 0 0.66 0 1 0 C1 23.1 1 46.2 1 70 C-4.94 70 -10.88 70 -17 70 C-17.19796072 62.56200681 -17.34303006 55.12555055 -17.43945312 47.68554688 C-17.47965134 45.15565275 -17.53422071 42.62594409 -17.60351562 40.09667969 C-17.70072044 36.45721705 -17.74596514 32.82021257 -17.78125 29.1796875 C-17.82254028 28.05134491 -17.86383057 26.92300232 -17.90637207 25.76046753 C-17.91076909 18.04230738 -17.91076909 18.04230738 -15.24459839 14.99107361 C-13.22755992 13.48023149 -11.18841725 12.24229546 -9 11 C-6.79434083 8.87468596 -6.79434083 8.87468596 -5.125 6.8125 C-4.29355469 5.83216797 -4.29355469 5.83216797 -3.4453125 4.83203125 C-2.22008253 3.27896948 -1.09729589 1.64594383 0 0 Z " fill="#205B92" transform="translate(647,148)"/>
<path d="M0 0 C0 16.17 0 32.34 0 49 C-5.94 49 -11.88 49 -18 49 C-18 33.16 -18 17.32 -18 1 C-3 0 -3 0 0 0 Z " fill="#233F80" transform="translate(622,169)"/>
<path d="M0 0 C5.94 0 11.88 0 18 0 C18 15.84 18 31.68 18 48 C12.06 48 6.12 48 0 48 C0 32.16 0 16.32 0 0 Z " fill="#212A75" transform="translate(578,170)"/>
<path d="M0 0 C4.29433508 1.32733993 5.6507194 2.54042026 8.375 6.125 C10.80371344 10.94177897 10.86603886 15.82867784 9.45703125 20.98828125 C7.99966873 24.74843757 6.11821884 27.46644719 3 30 C-2.60004123 31.86668041 -8.05177851 31.88555522 -13.4375 29.4375 C-18.00773844 25.09020002 -19.15429279 21.05292881 -19.375 14.9375 C-19.17967145 9.34091232 -17.60742399 5.90881599 -14 1.625 C-9.40444394 -0.86425953 -5.11235665 -0.60145372 0 0 Z " fill="#F8F9FA" transform="translate(392,124)"/>
<path d="M0 0 C4.58048714 2.20844916 6.75348511 4.50058808 9 9 C9.89769832 14.90984727 10.22782564 21.08883587 6.75 26.1875 C2.85350214 30.17255463 0.18349175 31.30515496 -5.375 31.4375 C-9.11568684 31.36758062 -11.58577443 31.14978082 -14.5625 28.8125 C-19.15158551 23.51740133 -19.43738606 18.6898039 -19.3203125 11.8828125 C-18.78985079 7.10865709 -16.6668224 4.50086172 -13.1953125 1.375 C-9.14196757 -1.16374985 -4.60962775 -0.60125579 0 0 Z " fill="#F9FAFA" transform="translate(145,124)"/>
<path d="M0 0 C3.72092083 1.65374259 5.87992583 3.54093161 8 7 C7.94140625 9.2265625 7.94140625 9.2265625 7.5625 11.625 C7.38391623 15.49623537 7.8018853 16.74283524 10.21484375 19.875 C12.73261526 22.36099038 15.29025734 24.7257517 18 27 C17.01 27.33 16.02 27.66 15 28 C12.36 25.36 9.72 22.72 7 20 C6.67 21.32 6.34 22.64 6 24 C5.360625 23.67 4.72125 23.34 4.0625 23 C1.11223433 22.03664795 -0.47563808 21.97352945 -3.5 22.125 C-6.92906587 22.20487841 -7.86151776 22.08250006 -10.9375 20.25 C-13.98332377 16.92728316 -14.85349415 15.13018796 -15.4375 10.625 C-14.85694294 5.8146701 -13.38607407 4.38607407 -10 1 C-6.80657621 -0.59671189 -3.47454369 -0.37418163 0 0 Z " fill="#268AB2" transform="translate(545,53)"/>
<path d="M0 0 C3.64776394 1.62122842 6.08406836 3.47065225 8 7 C8.1875 10.25 8.1875 10.25 8 13 C8.66 13.33 9.32 13.66 10 14 C10 15.65 10 17.3 10 19 C9.278125 18.938125 8.55625 18.87625 7.8125 18.8125 C4.93575611 18.77490285 4.93575611 18.77490285 2.6875 20.5 C-0.91414081 22.51021812 -3.96074637 22.90577203 -8 22 C-10.9375 19.5625 -10.9375 19.5625 -13 17 C-13.33 16.67 -13.66 16.34 -14 16 C-14.55419529 11.09400888 -14.74119722 7.21062213 -12.125 2.9375 C-8.38861557 -0.46920345 -4.89284998 -0.52692231 0 0 Z " fill="#2C689E" transform="translate(539,87)"/>
<path d="M0 0 C3.28120982 2.67853863 4.60356035 4.13575075 5.47265625 8.22265625 C5.76587729 12.72623066 5.43149247 14.47142173 2.5 18.0625 C1.675 18.701875 0.85 19.34125 0 20 C-0.66 19.01 -1.32 18.02 -2 17 C-2.99 17.33 -3.98 17.66 -5 18 C-5.66 17.67 -6.32 17.34 -7 17 C-6.814375 17.969375 -6.62875 18.93875 -6.4375 19.9375 C-6.293125 20.948125 -6.14875 21.95875 -6 23 C-6.33 23.33 -6.66 23.66 -7 24 C-7.1603556 27.02807044 -7.25960448 30.03585454 -7.31640625 33.06640625 C-7.33718735 33.97502914 -7.35796844 34.88365204 -7.37937927 35.81980896 C-7.44497672 38.73395946 -7.5038068 41.64820304 -7.5625 44.5625 C-7.60567554 46.53321291 -7.64928951 48.50391626 -7.69335938 50.47460938 C-7.80066843 55.31630988 -7.90190675 60.15810437 -8 65 C-8.33 65 -8.66 65 -9 65 C-9 50.48 -9 35.96 -9 21 C-10.32 20.34 -11.64 19.68 -13 19 C-15.6859194 16.83132262 -16.54483243 15.15351551 -17.0625 11.75 C-17.31809859 8.85321598 -17.24734805 7.43086434 -15.7890625 4.890625 C-10.9513157 -0.8202761 -7.32372398 -2.00771054 0 0 Z " fill="#21DCE3" transform="translate(613,33)"/>
<path d="M0 0 C3.38231081 1.39957689 5.27928642 2.73064421 7 6 C7.83931263 12.5046729 7.83931263 12.5046729 5.98046875 15.81640625 C3.83541289 18.50582673 2.28524531 19.90491823 -1 21 C-1.6604834 20.88140625 -2.3209668 20.7628125 -3.00146484 20.640625 C-6.58693181 20.04067236 -9.47103168 19.98403541 -12.5982666 22.06201172 C-16.95714298 25.67943804 -20.7703843 29.86234934 -24.625 34 C-25.82966857 35.25487659 -27.03668075 36.5075078 -28.24609375 37.7578125 C-31.19180241 40.81324108 -34.10385751 43.89757955 -37 47 C-37.66 46.01 -38.32 45.02 -39 44 C-39.99 44.495 -39.99 44.495 -41 45 C-41.66 44.34 -42.32 43.68 -43 43 C-42.51748779 42.5889502 -42.03497559 42.17790039 -41.5378418 41.75439453 C-36.407477 37.33185811 -31.57104114 32.6927383 -26.8125 27.875 C-25.78479492 26.84052734 -25.78479492 26.84052734 -24.73632812 25.78515625 C-23.41508718 24.45501377 -22.09573205 23.12299457 -20.77856445 21.78881836 C-19.67723332 20.68113776 -18.56786611 19.58130877 -17.44604492 18.49438477 C-14.69214339 15.8250045 -13.16021996 13.69160898 -12 10 C-10 12 -10 12 -10 15 C-8.35425434 15.02688151 -6.70838587 15.04634123 -5.0625 15.0625 C-4.14597656 15.07410156 -3.22945312 15.08570312 -2.28515625 15.09765625 C-0.03406673 15.25949049 -0.03406673 15.25949049 1 14 C1.30867281 10.52743085 1.38701339 8.6127712 -0.5 5.625 C-0.995 5.08875 -1.49 4.5525 -2 4 C-1.34 2.68 -0.68 1.36 0 0 Z " fill="#11E0E5" transform="translate(669,62)"/>
<path d="M0 0 C0.66 0 1.32 0 2 0 C2 9.9 2 19.8 2 30 C-3.94 30 -9.88 30 -16 30 C-16.78314689 21.55941683 -16.78314689 21.55941683 -16 17 C-14.03004566 14.67983156 -12.0355889 13.37376689 -9.4609375 11.765625 C-5.80279859 9.1410555 -3.78533022 5.70911721 -1.41015625 1.94140625 C-0.71212891 0.98041016 -0.71212891 0.98041016 0 0 Z " fill="#232878" transform="translate(568,188)"/>
<path d="M0 0 C2.99456414 1.24773506 4.39720624 2.23280794 6.375 4.75 C7.31697802 8.14112087 6.84752199 10.60991203 6 14 C3.58204675 16.9639427 1.65233538 18.79528588 -2.20703125 19.2734375 C-6.73033905 19.44975834 -9.22192719 19.52400822 -13.0625 16.9375 C-15.38260827 13.41991649 -16 11.20972566 -16 7 C-12.65285917 -0.53106688 -7.44834172 -0.77339011 0 0 Z " fill="#283077" transform="translate(274,82)"/>
<path d="M0 0 C2.7178732 2.37551397 3.90680362 4.67449147 5.26171875 8 C5.65810547 8.969375 6.05449219 9.93875 6.46289062 10.9375 C6.86701172 11.948125 7.27113281 12.95875 7.6875 14 C8.10322266 15.010625 8.51894531 16.02125 8.94726562 17.0625 C12 24.60160099 12 24.60160099 12 28 C4.74 28 -2.52 28 -10 28 C-9.29363837 23.76183023 -8.6757176 20.72831788 -7.1875 16.85546875 C-6.83429687 15.93185547 -6.48109375 15.00824219 -6.1171875 14.05664062 C-5.74851562 13.10982422 -5.37984375 12.16300781 -5 11.1875 C-4.63132812 10.22134766 -4.26265625 9.25519531 -3.8828125 8.25976562 C-1.14158929 1.14158929 -1.14158929 1.14158929 0 0 Z " fill="#F1F2F5" transform="translate(56,111)"/>
<path d="M0 0 C2.63093935 2.02958179 4.03622291 3.64966878 4.5234375 6.9921875 C4.5886335 11.28208437 4.6044206 13.95788895 2.4375 17.75 C0.23915508 19.64301924 -0.96223668 20.38211464 -3.8125 20.6875 C-3.4825 19.6975 -3.1525 18.7075 -2.8125 17.6875 C-4.05 17.64625 -5.2875 17.605 -6.5625 17.5625 C-10.40514712 17.11964173 -10.66768031 16.86490412 -13.3125 13.625 C-13.8075 12.655625 -14.3025 11.68625 -14.8125 10.6875 C-15.8025 11.3475 -16.7925 12.0075 -17.8125 12.6875 C-18.31588797 7.40192634 -17.15926996 4.77799661 -13.8125 0.6875 C-9.66937561 -2.45555988 -4.56126525 -2.12859045 0 0 Z " fill="#14C8D7" transform="translate(635.8125,63.3125)"/>
<path d="M0 0 C0.495 1.485 0.495 1.485 1 3 C0 5 0 5 -3 6.0625 C-4.485 6.5265625 -4.485 6.5265625 -6 7 C-7.27003323 8.05310277 -7.27003323 8.05310277 -7.1875 10.4375 C-7.26839983 13.16734675 -7.26839983 13.16734675 -5 15 C-5.375 17.625 -5.375 17.625 -6 20 C-7.11632812 19.75378906 -8.23265625 19.50757812 -9.3828125 19.25390625 C-14.89577973 18.56508906 -18.96791619 20.63254215 -23.875 22.9375 C-25.55871084 23.69923927 -27.24355304 24.45848438 -28.9296875 25.21484375 C-29.66429199 25.55636475 -30.39889648 25.89788574 -31.15576172 26.24975586 C-33 27 -33 27 -35 27 C-34.67 26.01 -34.34 25.02 -34 24 C-36.31 23.34 -38.62 22.68 -41 22 C-41 20.35 -41 18.7 -41 17 C-40.01 18.32 -39.02 19.64 -38 21 C-29.81843019 18.85092406 -21.26786887 16.40805615 -14 12 C-12.41194931 9.22492151 -12.3681449 7.26071196 -12 4 C-8.31924393 -0.20657837 -5.44381794 -0.42696611 0 0 Z " fill="#1CC6D7" transform="translate(671,92)"/>
<path d="M0 0 C0.66 0.33 1.32 0.66 2 1 C1.175 1.5775 0.35 2.155 -0.5 2.75 C-2.64523226 4.82950091 -2.98585221 5.79095913 -3.19140625 8.828125 C-3.10535874 10.94541533 -3.01681057 13.0626055 -2.92578125 15.1796875 C-3 18 -3 18 -4.75 21.125 C-8.88830014 24.57358345 -11.53843406 25.45513049 -17 25 C-20.46854202 24.08185652 -21.15062181 22.78243516 -23.25 19.75 C-25.03032405 16.33771223 -25.66055382 13.88075368 -25 10 C-21.84210526 4.42105263 -21.84210526 4.42105263 -19 3 C-17.00039988 2.960008 -14.99952758 2.95653201 -13 3 C-12.67 4.65 -12.34 6.3 -12 8 C-13.98 8.66 -15.96 9.32 -18 10 C-18.04241723 12.33294775 -18.04092937 14.66702567 -18 17 C-16.88833136 18.33187793 -16.88833136 18.33187793 -14.0625 18.1875 C-10.89107141 18.33278733 -10.89107141 18.33278733 -9 16 C-8.61713197 12.26703674 -8.85084215 11.22373677 -11 8 C-8.92446352 7.4465236 -7.15634036 7 -5 7 C-4.731875 6.401875 -4.46375 5.80375 -4.1875 5.1875 C-3.01506533 3.02775192 -1.80630718 1.64209744 0 0 Z " fill="#363480" transform="translate(564,171)"/>
<path d="M0 0 C2.375 1.9375 2.375 1.9375 4 4 C4.66 4.33 5.32 4.66 6 5 C6 6.98 6 8.96 6 11 C5.01 11 4.02 11 3 11 C2.2575 11.99 1.515 12.98 0.75 14 C-1.45820019 16.82863105 -1.72841688 16.96188307 -5.5625 17.5 C-8.56713496 17.06296219 -10.4732213 16.61713837 -13 15 C-13.33 15.66 -13.66 16.32 -14 17 C-15.61429923 13.77140153 -15.59570657 10.49006347 -15 7 C-11.4400258 0.79661211 -7.00625954 -1.05649946 0 0 Z " fill="#323D85" transform="translate(549,142)"/>
<path d="M0 0 C3.4375 2 3.4375 2 6 4 C5.67 5.32 5.34 6.64 5 8 C4.67 7.67 4.34 7.34 4 7 C3.34 7.66 2.68 8.32 2 9 C1.34 8.34 0.68 7.68 0 7 C-3 6.66666667 -3 6.66666667 -6 7 C-6.66 7.66 -7.32 8.32 -8 9 C-7.67801034 12.09926819 -7.67801034 12.09926819 -7 15 C-2.66726186 15.92844389 0.66726186 15.92844389 5 15 C5.33 15.99 5.66 16.98 6 18 C2.97354194 21.16402434 1.07970923 22.18307153 -3.3125 22.375 C-7.14506165 22.35031361 -7.82418398 22.13918768 -11 19.625 C-13.76414986 15.99705331 -14.39306028 13.72877309 -14.359375 9.10546875 C-13.72418186 5.38406547 -11.66020984 3.59687151 -9 1 C-5.89046621 -0.5547669 -3.43733239 -0.28644437 0 0 Z " fill="#26327F" transform="translate(526,116)"/>
<path d="M0 0 C1 2 1 2 1 6 C1.99 7.485 1.99 7.485 3 9 C3.25 12.0625 3.25 12.0625 3 15 C1 17 1 17 -0.875 17.23046875 C-1.57625 17.21628906 -2.2775 17.20210937 -3 17.1875 C-3.70125 17.18105469 -4.4025 17.17460938 -5.125 17.16796875 C-7 17 -7 17 -9 16 C-10.125 13.9375 -10.125 13.9375 -11 12 C-11.66 13.32 -12.32 14.64 -13 16 C-14 15 -14 15 -14.375 11.3125 C-14.35071978 7.93754942 -13.77541412 6.16829594 -11.625 3.5625 C-7.62991839 -0.33746062 -5.49646543 -0.1017864 0 0 Z " fill="#1CF6F0" transform="translate(668,61)"/>
<path d="M0 0 C1.12588014 0.95729916 2.2506715 1.91587895 3.375 2.875 C4.00148438 3.40867187 4.62796875 3.94234375 5.2734375 4.4921875 C6.55836651 5.61432007 7.79371975 6.79371975 9 8 C10.14891724 8.41548096 10.14891724 8.41548096 11.32104492 8.83935547 C14.5731495 10.24831429 16.38501093 12.04407565 18.86328125 14.5703125 C19.74951172 15.46621094 20.63574219 16.36210938 21.54882812 17.28515625 C22.46083984 18.22230469 23.37285156 19.15945312 24.3125 20.125 C25.25255572 21.08011605 26.19330431 22.03455067 27.13476562 22.98828125 C29.43008067 25.31890883 31.71809646 27.65625196 34 30 C33.67 30.66 33.34 31.32 33 32 C31.68 31.34 30.36 30.68 29 30 C29 29.34 29 28.68 29 28 C28.34 28 27.68 28 27 28 C26.67 27.67 26.34 27.34 26 27 C25.34 27.66 24.68 28.32 24 29 C20.72659437 25.85054367 17.47023603 22.68474201 14.22827148 19.50292969 C13.12403301 18.4237765 12.01534068 17.34916066 10.90209961 16.27929688 C9.29898719 14.73709843 7.71280917 13.17907937 6.12890625 11.6171875 C5.63097061 11.14505829 5.13303497 10.67292908 4.62001038 10.18649292 C1.38115794 6.95029723 0.30872002 4.55729558 0 0 Z " fill="#2081AB" transform="translate(551,72)"/>
<path d="M0 0 C3 1 3 1 4.6875 3.0625 C6.34544445 6.77313758 6.60351152 10.03075114 6 14 C4.5 17.5 4.5 17.5 3 20 C2.34 20 1.68 20 1 20 C1.33 18.02 1.66 16.04 2 14 C1.05125 14.495 0.1025 14.99 -0.875 15.5 C-4 17 -4 17 -6 17 C-6 16.34 -6 15.68 -6 15 C-6.639375 14.773125 -7.27875 14.54625 -7.9375 14.3125 C-10 13 -10 13 -10.9375 10.625 C-11 8 -11 8 -9.875 5.6875 C-8 4 -8 4 -5.5 3.75 C-4.675 3.8325 -3.85 3.915 -3 4 C-2.01 4 -1.02 4 0 4 C0 2.68 0 1.36 0 0 Z " fill="#28A8C3" transform="translate(583,59)"/>
<path d="M0 0 C0.66 1.65 1.32 3.3 2 5 C1.43410156 5.13277344 0.86820313 5.26554687 0.28515625 5.40234375 C-0.81505859 5.66724609 -0.81505859 5.66724609 -1.9375 5.9375 C-2.66839844 6.11152344 -3.39929688 6.28554687 -4.15234375 6.46484375 C-5.99969898 6.83887569 -5.99969898 6.83887569 -7 8 C-7.06681009 11.45426142 -7.06681009 11.45426142 -6 15 C-3.06550592 17.01041003 -3.06550592 17.01041003 0 18 C0 18.99 0 19.98 0 21 C-7.04477612 21.59701493 -7.04477612 21.59701493 -11 19.125 C-13.80032693 14.74948917 -13.92308185 11.0644761 -13 6 C-9.36474254 0.06241281 -6.69990396 -0.1240723 0 0 Z " fill="#255B99" transform="translate(538,87)"/>
<path d="M0 0 C1.32 0.33 2.64 0.66 4 1 C4.05783842 5.29161047 4.0935412 9.58312145 4.125 13.875 C4.14175781 15.09832031 4.15851562 16.32164063 4.17578125 17.58203125 C4.18222656 18.74863281 4.18867187 19.91523437 4.1953125 21.1171875 C4.20578613 22.19597168 4.21625977 23.27475586 4.22705078 24.38623047 C4 27 4 27 2 29 C1.71125 28.360625 1.4225 27.72125 1.125 27.0625 C0.17176549 24.84793921 0.17176549 24.84793921 -2 24 C-1.814375 23.38125 -1.62875 22.7625 -1.4375 22.125 C-0.76313824 19.95839822 -0.76313824 19.95839822 -2 18 C-2.12327929 15.89851818 -2.17558006 13.79256093 -2.1875 11.6875 C-2.20876953 9.99173828 -2.20876953 9.99173828 -2.23046875 8.26171875 C-2.00480137 5.06795157 -1.36342654 2.8723571 0 0 Z " fill="#1AF8F4" transform="translate(690,54)"/>
<path d="M0 0 C0.33 0 0.66 0 1 0 C1 20.79 1 41.58 1 63 C-0.98 63 -2.96 63 -5 63 C-4.01 62.34 -3.02 61.68 -2 61 C-1.52880247 58.38386049 -1.52880247 58.38386049 -1.58349609 55.28100586 C-1.55864639 53.48420631 -1.55864639 53.48420631 -1.53329468 51.65110779 C-1.53004181 50.35214066 -1.52678894 49.05317352 -1.5234375 47.71484375 C-1.50913377 46.37486695 -1.49337789 45.03490493 -1.47622681 43.69496155 C-1.4343187 40.16575046 -1.40935748 36.63663094 -1.38873291 33.10723877 C-1.35295178 27.45397892 -1.29206536 21.80094487 -1.23024368 16.14792061 C-1.21109516 14.16864008 -1.19992058 12.18928766 -1.18881226 10.20994568 C-1.17341904 8.41787437 -1.17341904 8.41787437 -1.15771484 6.58959961 C-1.15121918 5.53195908 -1.14472351 4.47431854 -1.13803101 3.3846283 C-1 1 -1 1 0 0 Z " fill="#1D226C" transform="translate(755,190)"/>
<path d="M0 0 C0.66 0.33 1.32 0.66 2 1 C1.175 1.5775 0.35 2.155 -0.5 2.75 C-2.64523226 4.82950091 -2.98585221 5.79095913 -3.19140625 8.828125 C-3.10540708 10.94422585 -3.0142533 13.06012345 -2.91796875 15.17578125 C-3 18 -3 18 -4.875 21.1875 C-8.60542398 24.36933222 -11.1660357 24.08951786 -16 24 C-15.8125 22.1875 -15.8125 22.1875 -15 20 C-12.5 18.3125 -12.5 18.3125 -10 17 C-8.73778302 15.95420381 -8.73778302 15.95420381 -8.8125 13.625 C-8.79951452 10.76555137 -8.79951452 10.76555137 -11 8 C-8.92446352 7.4465236 -7.15634036 7 -5 7 C-4.731875 6.401875 -4.46375 5.80375 -4.1875 5.1875 C-3.01506533 3.02775192 -1.80630718 1.64209744 0 0 Z " fill="#2C2C7C" transform="translate(564,171)"/>
<path d="M0 0 C1.22589844 0.15275391 1.22589844 0.15275391 2.4765625 0.30859375 C3.41628906 0.43427734 3.41628906 0.43427734 4.375 0.5625 C4.705 2.2125 5.035 3.8625 5.375 5.5625 C4.385 6.2225 3.395 6.8825 2.375 7.5625 C2.045 7.2325 1.715 6.9025 1.375 6.5625 C-2.21827435 6.1621295 -2.21827435 6.1621295 -5.25 7.875 C-5.930625 8.7103125 -5.930625 8.7103125 -6.625 9.5625 C-7.181875 10.01625 -7.73875 10.47 -8.3125 10.9375 C-10.11370754 13.16756648 -9.8507749 14.7779429 -9.625 17.5625 C-11.98451179 15.20298821 -11.96909415 14.54324365 -12.0625 11.3125 C-11.99975235 7.77581414 -11.5054695 5.80366057 -9.25 3.0625 C-5.75534118 -0.26574649 -4.62924575 -0.59518874 0 0 Z " fill="#1FA8C3" transform="translate(578.625,57.4375)"/>
<path d="M0 0 C3.0381839 1.32564953 4.78945198 2.62904425 6.796875 5.2578125 C7.28027344 5.88300781 7.76367188 6.50820313 8.26171875 7.15234375 C8.75285156 7.80332031 9.24398437 8.45429687 9.75 9.125 C10.25660156 9.78371094 10.76320313 10.44242188 11.28515625 11.12109375 C12.53030858 12.74214112 13.76608569 14.37038213 15 16 C14.01 16 13.02 16 12 16 C11.67 15.01 11.34 14.02 11 13 C10.34 13 9.68 13 9 13 C7.4921875 11.25 7.4921875 11.25 5.875 9 C5.33617187 8.2575 4.79734375 7.515 4.2421875 6.75 C3.83226562 6.1725 3.42234375 5.595 3 5 C-1.08685859 6.82696433 -3.29752149 9.5302563 -6 13 C-6.763125 13.9075 -7.52625 14.815 -8.3125 15.75 C-10.2 17.79791667 -10.2 17.79791667 -10 20 C-9.01 20.99 -8.02 21.98 -7 23 C-10.3 23 -13.6 23 -17 23 C-16.195625 21.9275 -15.39125 20.855 -14.5625 19.75 C-14.02238281 19.02941406 -13.48226562 18.30882813 -12.92578125 17.56640625 C-11.50813284 15.67716689 -10.08858138 13.78935517 -8.66796875 11.90234375 C-8.26827881 11.37092773 -7.86858887 10.83951172 -7.45678711 10.29199219 C-6.28938725 8.73986759 -5.12126862 7.18828367 -3.953125 5.63671875 C-2.58712719 3.7926217 -1.2729909 1.90948635 0 0 Z " fill="#23FDF9" transform="translate(690,32)"/>
<path d="M0 0 C1.32 0.33 2.64 0.66 4 1 C4.33074549 4.63820044 4.48805542 6.3773086 2.1875 9.3125 C-1.71068599 12.31967205 -5.20236803 12.41358896 -10 12 C-12.9375 10.1875 -12.9375 10.1875 -15 8 C-15 7.01 -15 6.02 -15 5 C-13.948125 5.185625 -12.89625 5.37125 -11.8125 5.5625 C-7.28519739 6.10471841 -7.28519739 6.10471841 -3 5 C-1.15565651 2.53884453 -1.15565651 2.53884453 0 0 Z " fill="#293381" transform="translate(551,152)"/>
<path d="M0 0 C2.4375 0.75 2.4375 0.75 4.4375 2.75 C4.771228 5.88704316 4.96599028 7.91554166 3.25 10.625 C0.78242892 12.15659584 -0.70769831 12.17822025 -3.5625 11.75 C-5.4375 10.6875 -5.4375 10.6875 -6.5625 8.75 C-6.4375 5.1875 -6.4375 5.1875 -5.5625 1.75 C-2.5625 -0.25 -2.5625 -0.25 0 0 Z " fill="#EEFBFB" transform="translate(630.5625,67.25)"/>
<path d="M0 0 C3.4375 2 3.4375 2 6 4 C5.67 5.32 5.34 6.64 5 8 C4.67 7.67 4.34 7.34 4 7 C3.34 7.66 2.68 8.32 2 9 C1.34 8.34 0.68 7.68 0 7 C-4.94517384 6.33934809 -9.52621297 6.69094863 -14 9 C-11.78710696 1.7578046 -7.52124409 -1.05561321 0 0 Z " fill="#333E88" transform="translate(526,116)"/>
<path d="M0 0 C3.38231081 1.39957689 5.27928642 2.73064421 7 6 C7.84161309 12.52250146 7.84161309 12.52250146 5.9453125 15.8515625 C4.625 17.5 4.625 17.5 2 20 C1.34 20 0.68 20 0 20 C0 19.34 0 18.68 0 18 C-1.32 17.34 -2.64 16.68 -4 16 C-2.35 15.34 -0.7 14.68 1 14 C1.30495485 9.57335436 1.30495485 9.57335436 -0.5 5.625 C-0.995 5.08875 -1.49 4.5525 -2 4 C-1.34 2.68 -0.68 1.36 0 0 Z " fill="#17F5F2" transform="translate(669,62)"/>
<path d="M0 0 C3.0625 0.3125 3.0625 0.3125 4.9375 1.5 C6.46909584 3.96757108 6.49072025 5.45769831 6.0625 8.3125 C4.9375 10.125 4.9375 10.125 3.0625 11.3125 C0 11.625 0 11.625 -2.9375 11.3125 C-4.9375 9.3125 -4.9375 9.3125 -5.1875 5.8125 C-4.87458101 1.43163414 -4.40975115 0.46912246 0 0 Z " fill="#F2F1F7" transform="translate(549.9375,178.6875)"/>
<path d="M0 0 C-1.66751148 3.94139078 -4.22710649 6.7892812 -7 10 C-6.34 10.33 -5.68 10.66 -5 11 C-7.97 13.97 -10.94 16.94 -14 20 C-14.66 19.01 -15.32 18.02 -16 17 C-16.66 17.33 -17.32 17.66 -18 18 C-18.66 17.34 -19.32 16.68 -20 16 C-19.52691406 15.59910156 -19.05382812 15.19820312 -18.56640625 14.78515625 C-13.76784363 10.66007611 -9.32297515 6.32648161 -4.98046875 1.72265625 C-3 0 -3 0 0 0 Z " fill="#24B1C6" transform="translate(646,89)"/>
<path d="M0 0 C3 0.25 3 0.25 5 2.25 C5.3125 5.75 5.3125 5.75 5 9.25 C2 11.25 2 11.25 -1.0625 11.0625 C-4 10.25 -4 10.25 -6 7.25 C-5.5601518 2.74155593 -4.87125629 0.40593802 0 0 Z " fill="#EEF0F6" transform="translate(523,121.75)"/>
<path d="M0 0 C0.66 0.66 1.32 1.32 2 2 C1.42307692 8.57692308 1.42307692 8.57692308 0 10 C-3.4375 10.25 -3.4375 10.25 -7 10 C-9.14762184 6.77856724 -9.561068 5.7404533 -9 2 C-6.07557433 -1.24936186 -4.04996841 -1.38551551 0 0 Z " fill="#EEF6F8" transform="translate(545,59)"/>
<path d="M0 0 C1.8125 1.1875 1.8125 1.1875 3 3 C3.42674516 5.84496772 3.36066991 7.36352369 1.9375 9.875 C-1.11569315 11.64782183 -3.66411708 10.69235306 -7 10 C-8.33359073 3.57451737 -8.33359073 3.57451737 -6.875 1.0625 C-4.36352369 -0.36066991 -2.84496772 -0.42674516 0 0 Z " fill="#F1FDFD" transform="translate(610,38)"/>
<path d="M0 0 C2.9375 0.875 2.9375 0.875 4.9375 3.875 C4.6133631 7.19740324 4.32973697 8.48276303 1.9375 10.875 C-1.0625 11.125 -1.0625 11.125 -4.0625 10.875 C-6.0625 8.875 -6.0625 8.875 -6.375 5.9375 C-6.0625 2.875 -6.0625 2.875 -4.9375 0.9375 C-3.0625 -0.125 -3.0625 -0.125 0 0 Z " fill="#EEFDFD" transform="translate(666.0625,66.125)"/>
<path d="M0 0 C3.5 0.25 3.5 0.25 5.5 2.25 C5.75 5.25 5.75 5.25 5.5 8.25 C3.5 10.25 3.5 10.25 0 10.5625 C-1.7325 10.4078125 -1.7325 10.4078125 -3.5 10.25 C-5.64915785 7.02626323 -5.88286803 5.98296326 -5.5 2.25 C-3.5 0.25 -3.5 0.25 0 0 Z " fill="#F2F6F8" transform="translate(535.5,92.75)"/>
<path d="M0 0 C2.5625 0.3125 2.5625 0.3125 4.375 1.5 C5.98775784 3.96157776 5.9959014 5.42315736 5.5625 8.3125 C4.375 10.125 4.375 10.125 2.5625 11.3125 C0.0625 11.75 0.0625 11.75 -2.4375 11.3125 C-4.3125 9.625 -4.3125 9.625 -5.4375 7.3125 C-5.14609088 3.23277231 -4.43505664 0.56859701 0 0 Z " fill="#F2FAFA" transform="translate(577.4375,62.6875)"/>
<path d="M0 0 C3 0.25 3 0.25 5 2.25 C5.33661952 5.4142235 5.49943411 7.43513382 3.8125 10.1875 C2 11.25 2 11.25 -0.5625 11.0625 C-3 10.25 -3 10.25 -5 8.25 C-5.25 5.25 -5.25 5.25 -5 2.25 C-3 0.25 -3 0.25 0 0 Z " fill="#F5F5FA" transform="translate(545,147.75)"/>
<path d="M0 0 C1.09845718 4.32059823 2.17812739 8.61667943 3 13 C2.01 13.33 1.02 13.66 0 14 C-2.5 11.9375 -2.5 11.9375 -5 9 C-5.3125 5.1875 -5.3125 5.1875 -5 2 C-1.125 0 -1.125 0 0 0 Z " fill="#1A80AB" transform="translate(536,60)"/>
<path d="M0 0 C1 3 1 3 1 5 C3.64 6.32 6.28 7.64 9 9 C8.34 10.65 7.68 12.3 7 14 C3.51460083 13.35455571 0.97180943 11.89865603 -2 10 C-1.67 9.01 -1.34 8.02 -1 7 C-1 5.96875 -1 4.9375 -1 3.875 C-1 1 -1 1 0 0 Z " fill="#3196B6" transform="translate(635,130)"/>
<path d="M0 0 C0.33 0 0.66 0 1 0 C1 4.95 1 9.9 1 15 C0.67 15 0.34 15 0 15 C-0.33 12.69 -0.66 10.38 -1 8 C-1.49628906 8.72445312 -1.99257813 9.44890625 -2.50390625 10.1953125 C-6.55772662 15.96450657 -10.41151248 20.69220753 -16 25 C-14.51846172 21.6816566 -12.59800099 19.19958644 -10.25 16.4375 C-6.06581955 11.31416956 -2.9602217 5.89801748 0 0 Z " fill="#24C3D0" transform="translate(673,108)"/>
<path d="M0 0 C0 0.33 0 0.66 0 1 C-0.94875 1.28875 -1.8975 1.5775 -2.875 1.875 C-6.05211578 2.76825109 -6.05211578 2.76825109 -8 5 C-7.34 5.33 -6.68 5.66 -6 6 C-7.70625501 8.78388975 -8.47626739 9.85384206 -11.6875 10.75 C-12.450625 10.8325 -13.21375 10.915 -14 11 C-14.33 11.99 -14.66 12.98 -15 14 C-15.50338797 8.71442634 -14.34676996 6.09049661 -11 2 C-7.59079146 -0.58629613 -4.15494595 -0.15980561 0 0 Z " fill="#23D1D7" transform="translate(633,62)"/>
<path d="M0 0 C5.28 0 10.56 0 16 0 C15.34 1.98 14.68 3.96 14 6 C9.38 6 4.76 6 0 6 C0 5.67 0 5.34 0 5 C3.3 5 6.6 5 10 5 C10.33 3.68 10.66 2.36 11 1 C7.37 1 3.74 1 0 1 C0 0.67 0 0.34 0 0 Z " fill="#1E9BBD" transform="translate(636,124)"/>
<path d="M0 0 C-1.55002747 3.88397689 -4.00476621 6.02979619 -7.125 8.75 C-8.49011719 9.94882813 -8.49011719 9.94882813 -9.8828125 11.171875 C-10.58148437 11.77515625 -11.28015625 12.3784375 -12 13 C-12.66 12.34 -13.32 11.68 -14 11 C-12.23807715 9.15730989 -10.46648194 7.32609243 -8.6875 5.5 C-7.93823242 4.71302734 -7.93823242 4.71302734 -7.17382812 3.91015625 C-3.33984375 0 -3.33984375 0 0 0 Z " fill="#1FC9D4" transform="translate(646,89)"/>
<path d="M0 0 C-1.61010527 4.07376031 -4.53822271 6.76507069 -7.625 9.75 C-8.140625 10.25660156 -8.65625 10.76320312 -9.1875 11.28515625 C-10.45383339 12.52803902 -11.7263144 13.76465276 -13 15 C-13.33 14.01 -13.66 13.02 -14 12 C-11.48140811 7.86441332 -5.06922305 0 0 0 Z " fill="#31498B" transform="translate(585,151)"/>
<path d="M0 0 C0.66 0.66 1.32 1.32 2 2 C0.85481752 3.14518248 -0.29068969 4.29004142 -1.4375 5.43359375 C-2.54680866 6.54567568 -3.65040381 7.66346995 -4.75 8.78515625 C-11.35222935 15.4869882 -11.35222935 15.4869882 -14 17 C-14.99 16.67 -15.98 16.34 -17 16 C-16.52691406 15.59910156 -16.05382812 15.19820312 -15.56640625 14.78515625 C-10.11819815 10.10160893 -5.02642997 5.13114726 0 0 Z " fill="#364186" transform="translate(571,158)"/>
<path d="M0 0 C1.65 0 3.3 0 5 0 C4.34 0.66 3.68 1.32 3 2 C2.74473877 4.85428461 2.57981716 7.64066771 2.5 10.5 C2.27027027 18.72972973 2.27027027 18.72972973 0 21 C0 14.07 0 7.14 0 0 Z " fill="#1D1F64" transform="translate(2,3)"/>
<path d="M0 0 C0.33 0 0.66 0 1 0 C1.33 1.65 1.66 3.3 2 5 C3.32 4.01 4.64 3.02 6 2 C6.66 4.31 7.32 6.62 8 9 C5 9 5 9 2 8 C1.67 8.66 1.34 9.32 1 10 C-0.60725635 6.78548731 -0.05748185 3.56387464 0 0 Z " fill="#42498E" transform="translate(534,149)"/>
<path d="M0 0 C0.33 0 0.66 0 1 0 C1.23828125 2.2734375 1.23828125 2.2734375 1 5 C-0.64453125 6.9140625 -0.64453125 6.9140625 -2.8125 8.625 C-5.33959166 10.65956195 -7.75052762 12.65827796 -10 15 C-10.66 14.67 -11.32 14.34 -12 14 C-11.55269531 13.57589844 -11.10539063 13.15179688 -10.64453125 12.71484375 C-6.54580292 8.73846552 -3.25162379 4.68616369 0 0 Z " fill="#2D8AAB" transform="translate(647,148)"/>
<path d="M0 0 C0.33 0.99 0.66 1.98 1 3 C0.67 3.66 0.34 4.32 0 5 C-0.99 4.67 -1.98 4.34 -3 4 C-3 3.34 -3 2.68 -3 2 C-4.32 2 -5.64 2 -7 2 C-7 2.66 -7 3.32 -7 4 C-8.32 3.67 -9.64 3.34 -11 3 C-7.48550811 -0.37391222 -4.73940561 -0.27342725 0 0 Z " fill="#31E6E5" transform="translate(671,92)"/>
<path d="M0 0 C0.33 1.98 0.66 3.96 1 6 C-0.65 6.33 -2.3 6.66 -4 7 C-4.33 5.35 -4.66 3.7 -5 2 C-2 0 -2 0 0 0 Z " fill="#367CA2" transform="translate(623,155)"/>
<path d="M0 0 C0.99 0.33 1.98 0.66 3 1 C2.75 2.875 2.75 2.875 2 5 C-0.97397684 6.91184226 -3.25541503 7.22778191 -6.75 7.125 C-7.54921875 7.10695312 -8.3484375 7.08890625 -9.171875 7.0703125 C-9.77515625 7.04710937 -10.3784375 7.02390625 -11 7 C-11 6.67 -11 6.34 -11 6 C-5.555 5.01 -5.555 5.01 0 4 C0 2.68 0 1.36 0 0 Z " fill="#2E3988" transform="translate(529,131)"/>
<path d="M0 0 C0.66 0.33 1.32 0.66 2 1 C1.25 3.9375 1.25 3.9375 0 7 C-2.125 7.875 -2.125 7.875 -4 8 C-4 6.02 -4 4.04 -4 2 C-2.125 0.9375 -2.125 0.9375 0 0 Z " fill="#262B7C" transform="translate(539,147)"/>
<path d="M0 0 C0.66 0.33 1.32 0.66 2 1 C0.29374499 3.78388975 -0.47626739 4.85384206 -3.6875 5.75 C-4.8321875 5.87375 -4.8321875 5.87375 -6 6 C-6.33 6.99 -6.66 7.98 -7 9 C-7 7.02 -7 5.04 -7 3 C-4.69631264 1.93347808 -2.35981813 0.93578995 0 0 Z " fill="#2CCAD5" transform="translate(625,67)"/>
<path d="M0 0 C0.66 0.33 1.32 0.66 2 1 C1 3 0 5 -1 7 C-1.0396713 8.66619446 -1.04384447 10.33391013 -1 12 C-3 10 -3 10 -3.3125 6.5625 C-3 3 -3 3 -1.5 1.0625 C-1.005 0.711875 -0.51 0.36125 0 0 Z " fill="#1BA0BC" transform="translate(570,63)"/>
<path d="M0 0 C-0.66 1.98 -1.32 3.96 -2 6 C-4.64 6 -7.28 6 -10 6 C-10 5.67 -10 5.34 -10 5 C-8.02 4.67 -6.04 4.34 -4 4 C-4 3.34 -4 2.68 -4 2 C-4.99 1.34 -5.98 0.68 -7 0 C-2.25 -1.125 -2.25 -1.125 0 0 Z " fill="#3E6FA4" transform="translate(541,103)"/>
<path d="M0 0 C0.99 0.66 1.98 1.32 3 2 C0.03 4.475 0.03 4.475 -3 7 C-3.66 6.01 -4.32 5.02 -5 4 C-3.35 2.68 -1.7 1.36 0 0 Z " fill="#18B8CD" transform="translate(638,98)"/>
<path d="M0 0 C5.28 0 10.56 0 16 0 C15.67 1.65 15.34 3.3 15 5 C14.34 4.67 13.68 4.34 13 4 C13 3.01 13 2.02 13 1 C8.71 1 4.42 1 0 1 C0 0.67 0 0.34 0 0 Z " fill="#62BCD1" transform="translate(636,124)"/>
<path d="M0 0 C4.75 0.75 4.75 0.75 7 3 C6 4 6 4 2.4375 4.0625 C1.303125 4.041875 0.16875 4.02125 -1 4 C-0.67 2.68 -0.34 1.36 0 0 Z " fill="#24237A" transform="translate(549,191)"/>
<path d="M0 0 C2.97 1.98 2.97 1.98 6 4 C5.34 4.66 4.68 5.32 4 6 C3.01 6 2.02 6 1 6 C0.34 4.35 -0.32 2.7 -1 1 C-0.67 0.67 -0.34 0.34 0 0 Z " fill="#252679" transform="translate(542,188)"/>
<path d="M0 0 C1.98 0.495 1.98 0.495 4 1 C3.1875 2.9375 3.1875 2.9375 2 5 C1.01 5.33 0.02 5.66 -1 6 C-0.67 4.02 -0.34 2.04 0 0 Z " fill="#3A85A5" transform="translate(632,150)"/>
<path d="M0 0 C1.875 0.3125 1.875 0.3125 4 1 C4.66 1.99 5.32 2.98 6 4 C4.125 4.625 4.125 4.625 2 5 C1.34 4.34 0.68 3.68 0 3 C0 2.01 0 1.02 0 0 Z " fill="#202B7B" transform="translate(536,157)"/>
<path d="M0 0 C0.33 0.99 0.66 1.98 1 3 C-0.9375 6.1875 -0.9375 6.1875 -3 9 C-3.66 8.01 -4.32 7.02 -5 6 C-3.35 4.02 -1.7 2.04 0 0 Z " fill="#2C397B" transform="translate(299,116)"/>
<path d="M0 0 C0.37125 0.66 0.7425 1.32 1.125 2 C2.90894778 4.35303045 2.90894778 4.35303045 6.1875 4.25 C7.115625 4.1675 8.04375 4.085 9 4 C8.67 4.66 8.34 5.32 8 6 C5.66705225 6.04241723 3.33297433 6.04092937 1 6 C0 5 0 5 -0.0625 2.4375 C-0.041875 1.633125 -0.02125 0.82875 0 0 Z " fill="#2AA8C3" transform="translate(630,109)"/>
<path d="M0 0 C1.32 0.66 2.64 1.32 4 2 C4 3.65 4 5.3 4 7 C1.16032769 7 -1.23735711 6.59732819 -4 6 C-4 5.67 -4 5.34 -4 5 C-2.02 5 -0.04 5 2 5 C1.34 3.35 0.68 1.7 0 0 Z " fill="#477AA9" transform="translate(538,87)"/>
<path d="M0 0 C-1.39332574 3.36720387 -2.9789286 4.9859524 -6 7 C-5.6875 4.625 -5.6875 4.625 -5 2 C-2 0 -2 0 0 0 Z " fill="#325A92" transform="translate(585,151)"/>
<path d="M0 0 C-1.32 1.65 -2.64 3.3 -4 5 C-4 4.34 -4 3.68 -4 3 C-4.99 3 -5.98 3 -7 3 C-7 2.34 -7 1.68 -7 1 C-3.375 -1.125 -3.375 -1.125 0 0 Z " fill="#1D2566" transform="translate(36,133)"/>
<path d="M0 0 C0.66 1.32 1.32 2.64 2 4 C0.75 6.75 0.75 6.75 -1 9 C-1.66 9 -2.32 9 -3 9 C-2.01 6.03 -1.02 3.06 0 0 Z " fill="#344079" transform="translate(32,125)"/>
<path d="M0 0 C0.99 1.32 1.98 2.64 3 4 C1.625 5.5 1.625 5.5 0 7 C-0.66 7 -1.32 7 -2 7 C-1.34 4.69 -0.68 2.38 0 0 Z " fill="#2F3A7B" transform="translate(39,109)"/>
</svg>
